<svg width="195" height="33" viewBox="0 0 195 33" fill="none" xmlns="http://www.w3.org/2000/svg">
<path d="M178.873 20.4281C179.542 21.6015 181.503 22.5951 183.585 22.5951C189.786 22.5951 194.25 17.3679 194.25 10.8774C194.25 4.65645 188.707 0 181.578 0C172.707 0 168 5.45455 168 11.4006C168 14.1649 169.603 17.6004 172.17 18.6945C172.562 18.8636 172.77 18.7896 172.857 18.4461C172.926 18.1818 173.272 16.908 173.428 16.3108C173.485 16.1205 173.433 15.9144 173.283 15.7717C172.436 14.8256 171.755 13.092 171.755 11.4746C171.755 7.3203 175.187 3.2981 181.036 3.2981C186.088 3.2981 189.624 6.4482 189.624 10.9619C189.624 16.0571 186.815 19.5877 183.158 19.5877C181.139 19.5877 179.628 18.0603 180.113 16.1839C180.695 13.9429 181.814 11.5275 181.814 9.91015C181.814 8.46195 180.966 7.25687 179.213 7.25687C177.148 7.25687 175.493 9.21247 175.493 11.8288C175.493 13.4989 176.11 14.6247 176.11 14.6247C176.11 14.6247 174.074 22.5159 173.699 23.9852C173.272 25.6765 173.468 28.1025 173.653 29.5825C174.074 29.7304 174.489 29.8784 174.922 30C175.758 28.7685 177.108 26.6015 177.586 24.8996C177.84 24.0275 178.873 20.4281 178.873 20.4281Z" fill="white"/>
<path d="M10.1124 32.9999V19.3154H14.7057L15.3934 13.9824H10.1124V10.5774C10.1124 9.03335 10.5412 7.98102 12.7555 7.98102L15.5796 7.97972V3.20991C15.0909 3.14516 13.4146 3 11.4644 3C7.39277 3 4.60522 5.48522 4.60522 10.0495V13.9825H0V19.3156H4.60507V33L10.1124 32.9999Z" fill="white"/>
<path d="M72.7625 11.8125C72.7625 12.075 72.7625 12.3375 72.7625 12.5625C72.7625 20.325 66.8375 29.2875 56.0375 29.2875C52.7 29.2875 49.625 28.3125 47 26.6625C47.45 26.7 47.9375 26.7375 48.3875 26.7375C51.125 26.7375 53.675 25.8 55.7 24.225C53.1125 24.1875 50.9375 22.4625 50.225 20.1375C50.6 20.2125 50.9375 20.25 51.35 20.25C51.875 20.25 52.4 20.175 52.8875 20.025C50.1875 19.5 48.1625 17.1375 48.1625 14.2875C48.1625 14.25 48.1625 14.25 48.1625 14.2125C48.95 14.6625 49.85 14.925 50.825 14.9625C49.25 13.9125 48.2 12.1125 48.2 10.05C48.2 8.9625 48.5 7.95 48.9875 7.0875C51.875 10.65 56.225 12.975 61.1 13.2375C60.9875 12.825 60.95 12.3375 60.95 11.8875C60.95 8.625 63.575 6 66.8375 6C68.525 6 70.0625 6.7125 71.1125 7.8375C72.4625 7.575 73.7 7.0875 74.8625 6.4125C74.4125 7.8 73.475 8.925 72.275 9.675C73.475 9.525 74.6 9.225 75.65 8.7375C74.9 9.9375 73.925 10.9875 72.7625 11.8125Z" fill="white"/>
<path d="M117.001 18C117.001 15.2387 119.239 12.9996 122 12.9996C124.761 12.9996 127 15.2387 127 18C127 20.7613 124.761 23.0004 122 23.0004C119.239 23.0004 117.001 20.7613 117.001 18ZM114.298 18C114.298 22.254 117.746 25.7023 122 25.7023C126.254 25.7023 129.702 22.254 129.702 18C129.702 13.746 126.254 10.2977 122 10.2977C117.746 10.2977 114.298 13.746 114.298 18ZM128.207 9.99228C128.207 10.3483 128.313 10.6963 128.51 10.9924C128.708 11.2885 128.989 11.5193 129.318 11.6557C129.647 11.7921 130.009 11.8279 130.358 11.7586C130.707 11.6892 131.028 11.5179 131.28 11.2663C131.531 11.0147 131.703 10.694 131.773 10.3449C131.842 9.99573 131.807 9.6338 131.67 9.30483C131.534 8.97587 131.304 8.69466 131.008 8.49675C130.712 8.29885 130.364 8.19314 130.008 8.193H130.007C129.53 8.19322 129.072 8.38284 128.735 8.7202C128.397 9.05756 128.208 9.51508 128.207 9.99228ZM115.94 30.2096C114.478 30.143 113.683 29.8994 113.154 29.6936C112.454 29.421 111.954 29.0963 111.429 28.5716C110.904 28.047 110.579 27.5478 110.307 26.8475C110.101 26.3195 109.858 25.5244 109.791 24.0619C109.718 22.4808 109.704 22.0058 109.704 18.0001C109.704 13.9944 109.72 13.5208 109.791 11.9383C109.858 10.4759 110.103 9.68232 110.307 9.15276C110.58 8.45244 110.904 7.95276 111.429 7.4274C111.954 6.90204 112.453 6.57684 113.154 6.3054C113.682 6.09948 114.478 5.85588 115.94 5.7894C117.521 5.71668 117.996 5.70216 122 5.70216C126.004 5.70216 126.479 5.71788 128.062 5.7894C129.524 5.856 130.318 6.1014 130.847 6.3054C131.548 6.57684 132.047 6.90276 132.573 7.4274C133.098 7.95204 133.422 8.45244 133.695 9.15276C133.901 9.68076 134.144 10.4759 134.211 11.9383C134.283 13.5208 134.298 13.9944 134.298 18.0001C134.298 22.0058 134.283 22.4795 134.211 24.0619C134.144 25.5244 133.899 26.3192 133.695 26.8475C133.422 27.5478 133.097 28.0475 132.573 28.5716C132.048 29.0958 131.548 29.421 130.847 29.6936C130.319 29.8996 129.524 30.1432 128.062 30.2096C126.481 30.2824 126.006 30.2969 122 30.2969C117.994 30.2969 117.521 30.2824 115.94 30.2096ZM115.816 3.09084C114.219 3.16356 113.128 3.41676 112.175 3.78756C111.188 4.17048 110.353 4.6842 109.518 5.51772C108.683 6.35124 108.17 7.188 107.788 8.17488C107.417 9.1284 107.164 10.219 107.091 11.8158C107.017 13.4152 107 13.9265 107 18C107 22.0735 107.017 22.5848 107.091 24.1842C107.164 25.7812 107.417 26.8716 107.788 27.8251C108.17 28.8114 108.683 29.6491 109.518 30.4823C110.352 31.3154 111.188 31.8284 112.175 32.2124C113.13 32.5832 114.219 32.8364 115.816 32.9092C117.416 32.9819 117.926 33 122 33C126.074 33 126.585 32.9831 128.184 32.9092C129.781 32.8364 130.872 32.5832 131.825 32.2124C132.811 31.8284 133.647 31.3158 134.482 30.4823C135.317 29.6488 135.828 28.8114 136.212 27.8251C136.583 26.8716 136.838 25.781 136.909 24.1842C136.982 22.5836 136.999 22.0735 136.999 18C136.999 13.9265 136.982 13.4152 136.909 11.8158C136.836 10.2188 136.583 9.1278 136.212 8.17488C135.828 7.1886 135.316 6.35256 134.482 5.51772C133.649 4.68288 132.811 4.17048 131.826 3.78756C130.872 3.41676 129.781 3.16236 128.185 3.09084C126.586 3.01812 126.075 3 122.001 3C117.928 3 117.416 3.01692 115.816 3.09084Z" fill="white"/>
</svg>
